<?xml version="1.0" standalone="no"?>
<!DOCTYPE svg PUBLIC "-//W3C//DTD SVG 20010904//EN"
 "http://www.w3.org/TR/2001/REC-SVG-20010904/DTD/svg10.dtd">
<svg version="1.0" xmlns="http://www.w3.org/2000/svg"
 width="260.000000pt" height="260.000000pt" viewBox="0 0 260.000000 260.000000"
 preserveAspectRatio="xMidYMid meet">
<metadata>
Created by potrace 1.11, written by Peter Selinger 2001-2013
</metadata>
<g transform="translate(0.000000,260.000000) scale(0.100000,-0.100000)"
fill="#000000" stroke="none">
<path d="M947 2570 c-74 -13 -112 -80 -82 -144 16 -33 34 -45 90 -62 66 -20
52 -145 -22 -187 -29 -16 -60 -19 -260 -21 -248 -4 -287 -11 -395 -71 -113
-63 -216 -204 -243 -332 -21 -98 -21 -642 0 -731 38 -161 157 -299 311 -361
27 -10 72 -42 101 -69 63 -60 118 -93 203 -123 59 -20 87 -22 289 -24 170 -2
225 -5 231 -15 4 -7 16 -45 25 -83 23 -94 46 -147 86 -192 71 -80 165 -118
314 -126 65 -3 86 2 115 29 67 62 33 163 -60 175 -33 5 -51 42 -44 92 7 51 26
80 66 101 27 14 70 17 253 19 262 2 309 12 425 88 98 65 167 158 206 280 22
69 23 85 23 387 0 348 -6 398 -60 500 -58 109 -152 194 -265 239 -28 11 -74
43 -106 74 -59 56 -148 106 -228 128 -27 8 -127 13 -255 15 -115 1 -215 3
-222 3 -12 1 -30 46 -39 97 -33 180 -156 292 -342 310 -31 3 -61 7 -67 8 -5 1
-27 -1 -48 -4z"/>
</g>
</svg>
