<?xml version="1.0" standalone="no"?>
<!DOCTYPE svg PUBLIC "-//W3C//DTD SVG 20010904//EN"
 "http://www.w3.org/TR/2001/REC-SVG-20010904/DTD/svg10.dtd">
<svg version="1.0" xmlns="http://www.w3.org/2000/svg"
 width="360.000000pt" height="360.000000pt" viewBox="0 0 360.000000 360.000000"
 preserveAspectRatio="xMidYMid meet">
<metadata>
Created by potrace 1.11, written by Peter Selinger 2001-2013
</metadata>
<g transform="translate(0.000000,360.000000) scale(0.100000,-0.100000)"
fill="#000000" stroke="none">
<path d="M1758 3015 c-2 -2 -25 -6 -53 -9 -27 -4 -57 -9 -65 -11 -8 -2 -28 -6
-44 -9 -61 -11 -224 -70 -306 -111 -334 -169 -553 -467 -624 -850 -20 -108
-16 -381 8 -486 103 -473 436 -810 911 -925 117 -28 158 -24 192 18 36 43 9
131 -44 144 -223 53 -311 86 -433 162 -66 41 -210 172 -250 228 -8 11 -25 34
-36 50 -40 56 -113 219 -134 299 -48 183 -46 414 5 590 60 206 164 363 326
492 114 90 293 175 429 202 30 6 69 13 85 17 51 10 317 14 370 4 100 -17 113
-20 200 -45 92 -27 238 -97 290 -140 l29 -24 -109 -105 -109 -105 -31 24 c-63
51 -200 105 -307 121 -78 11 -216 4 -290 -15 -248 -64 -425 -231 -507 -479
-26 -81 -33 -127 -35 -237 -9 -377 216 -677 561 -749 67 -14 240 -15 317 -1
82 15 180 64 300 149 9 6 30 -7 67 -42 30 -27 79 -73 109 -101 l55 -51 -25
-20 c-120 -98 -286 -180 -410 -204 -19 -3 -46 -8 -60 -11 -14 -3 -52 -8 -85
-11 -33 -3 -74 -13 -92 -21 -65 -30 -64 -127 0 -162 47 -25 244 0 392 50 172
59 363 179 468 296 38 43 47 60 47 90 0 43 3 39 -370 382 -50 45 -96 59 -131
40 -13 -7 -49 -37 -79 -68 -101 -102 -210 -142 -373 -136 -223 8 -388 131
-465 347 -20 58 -26 96 -28 183 -6 191 41 321 156 435 112 112 220 152 390
146 156 -5 231 -36 333 -137 54 -54 85 -63 130 -40 45 23 406 380 413 408 11
41 -6 75 -63 130 -98 95 -237 177 -383 226 -114 39 -150 47 -282 66 -56 8
-352 13 -360 6z"/>
</g>
</svg>
